STARTFONT 2.1
FONT m35054
SIZE 18 72 72
FONTBOUNDINGBOX 12 18 0 -2
STARTPROPERTIES 13
ADD_STYLE_NAME ""
AVERAGE_WIDTH 120
DEFAULT_CHAR 61445
FONT_ASCENT 16
FONT_DESCENT 2
PIXEL_SIZE 18
POINT_SIZE 180
RESOLUTION_X 72
RESOLUTION_Y 72
SETWIDTH_NAME "Normal"
SLANT "r"
SPACING "c"
WEIGHT_NAME "Medium"
ENDPROPERTIES
CHARS 174
STARTCHAR uni00ae
ENCODING 174
SWIDTH 666 0
DWIDTH 12 0
BBX 12 18 0 -2
BITMAP
0000
3FC0
7FE0
C030
9F10
9990
9990
9990
9F10
9E10
9B10
9990
98D0
8010
C030
7FE0
3FC0
0000
ENDCHAR
STARTCHAR uni00b0
ENCODING 176
SWIDTH 666 0
DWIDTH 12 0
BBX 12 18 0 -2
BITMAP
0000
0180
03C0
0660
0660
03C0
0180
0000
0000
0000
0000
0000
0000
0000
0000
0000
0000
0000
ENDCHAR
STARTCHAR uni00bd
ENCODING 189
SWIDTH 666 0
DWIDTH 12 0
BBX 12 18 0 -2
BITMAP
0000
1800
3800
7800
1800
1800
1800
1800
01C0
03E0
0660
0660
00C0
0180
0300
07E0
07E0
0000
ENDCHAR
STARTCHAR uni00bf
ENCODING 191
SWIDTH 666 0
DWIDTH 12 0
BBX 12 18 0 -2
BITMAP
0000
0000
0600
0600
0000
0000
0600
0600
1E00
3E00
7000
6000
6060
70E0
3FC0
1F80
0000
0000
ENDCHAR
STARTCHAR uni2122
ENCODING 8482
SWIDTH 666 0
DWIDTH 12 0
BBX 12 18 0 -2
BITMAP
0000
0000
0000
7D10
11B0
11F0
1150
1110
1110
1110
0000
0000
0000
0000
0000
0000
0000
0000
ENDCHAR
STARTCHAR uni00a2
ENCODING 162
SWIDTH 666 0
DWIDTH 12 0
BBX 12 18 0 -2
BITMAP
0000
0000
0300
0300
0FC0
1FE0
3B70
7330
6300
6300
7330
3B70
1FE0
0FC0
0300
0300
0000
0000
ENDCHAR
STARTCHAR uni00a3
ENCODING 163
SWIDTH 666 0
DWIDTH 12 0
BBX 12 18 0 -2
BITMAP
0000
0000
0780
0FC0
0CC0
0C00
0C00
0F00
0F00
0C00
0C00
0C00
0C00
0C00
3FC0
3FC0
0000
0000
ENDCHAR
STARTCHAR uni266a
ENCODING 9834
SWIDTH 666 0
DWIDTH 12 0
BBX 12 18 0 -2
BITMAP
0000
0000
0600
0700
0780
07C0
06E0
0660
0600
0600
1E00
3E00
7E00
7E00
3C00
1800
0000
0000
ENDCHAR
STARTCHAR uni00e0
ENCODING 224
SWIDTH 666 0
DWIDTH 12 0
BBX 12 18 0 -2
BITMAP
0000
1800
1C00
0E00
0600
0000
1F00
3F80
31C0
00C0
3FC0
7FC0
60C0
60C0
7FE0
3FE0
0000
0000
ENDCHAR
STARTCHAR unif000
ENCODING 61440
SWIDTH 666 0
DWIDTH 12 0
BBX 12 18 0 -2
BITMAP
0000
0000
0000
FFF0
FFF0
E000
C7F0
CCC0
D860
D860
D860
CCC0
C780
E000
FFF0
FFF0
0000
0000
ENDCHAR
STARTCHAR uni00e8
ENCODING 232
SWIDTH 666 0
DWIDTH 12 0
BBX 12 18 0 -2
BITMAP
0000
0C00
0E00
0700
0300
0000
1F80
3FC0
70E0
6060
7FE0
7FE0
6000
70E0
3FC0
1F80
0000
0000
ENDCHAR
STARTCHAR uni00e2
ENCODING 226
SWIDTH 666 0
DWIDTH 12 0
BBX 12 18 0 -2
BITMAP
0000
0600
0F00
1F80
1980
0000
1F00
3F80
31C0
00C0
3FC0
7FC0
60C0
60C0
7FE0
3FE0
0000
0000
ENDCHAR
STARTCHAR uni00ea
ENCODING 234
SWIDTH 666 0
DWIDTH 12 0
BBX 12 18 0 -2
BITMAP
0000
0600
0F00
1F80
1980
0000
1F80
3FC0
70E0
6060
7FE0
7FE0
6000
70E0
3FC0
1F80
0000
0000
ENDCHAR
STARTCHAR uni00ee
ENCODING 238
SWIDTH 666 0
DWIDTH 12 0
BBX 12 18 0 -2
BITMAP
0000
0600
0F00
1F80
1980
0000
0600
0600
0600
0600
0600
0600
0600
0600
0600
0600
0000
0000
ENDCHAR
STARTCHAR uni00f4
ENCODING 244
SWIDTH 666 0
DWIDTH 12 0
BBX 12 18 0 -2
BITMAP
0000
0600
0F00
1F80
1980
0000
1F80
3FC0
70E0
6060
6060
6060
6060
70E0
3FC0
1F80
0000
0000
ENDCHAR
STARTCHAR uni00fb
ENCODING 251
SWIDTH 666 0
DWIDTH 12 0
BBX 12 18 0 -2
BITMAP
0000
0600
0F00
1F80
1980
0000
6060
6060
6060
6060
6060
6060
6060
70E0
3FE0
1F60
0000
0000
ENDCHAR
STARTCHAR unif001
ENCODING 61441
SWIDTH 666 0
DWIDTH 12 0
BBX 12 18 0 -2
BITMAP
0000
0000
0000
FFF0
FFF0
0070
FE30
3330
61B0
61B0
61B0
3330
1E30
0070
FFF0
FFF0
0000
0000
ENDCHAR
STARTCHAR uni0021
ENCODING 33
SWIDTH 666 0
DWIDTH 12 0
BBX 12 18 0 -2
BITMAP
0000
0000
0600
0600
0600
0600
0600
0600
0600
0600
0600
0000
0000
0000
0600
0600
0000
0000
ENDCHAR
STARTCHAR uni0022
ENCODING 34
SWIDTH 666 0
DWIDTH 12 0
BBX 12 18 0 -2
BITMAP
0000
0000
0360
0360
0360
0360
0360
0360
0000
0000
0000
0000
0000
0000
0000
0000
0000
0000
ENDCHAR
STARTCHAR uni0023
ENCODING 35
SWIDTH 666 0
DWIDTH 12 0
BBX 12 18 0 -2
BITMAP
0000
0000
0000
0000
1980
1980
1980
7FE0
7FE0
1980
1980
7FE0
7FE0
1980
1980
1980
0000
0000
ENDCHAR
STARTCHAR uni0024
ENCODING 36
SWIDTH 666 0
DWIDTH 12 0
BBX 12 18 0 -2
BITMAP
0000
0600
1F80
3FC0
76E0
6660
6600
7600
3F80
1FC0
06E0
0660
6660
76E0
3FC0
1F80
0600
0000
ENDCHAR
STARTCHAR uni0025
ENCODING 37
SWIDTH 666 0
DWIDTH 12 0
BBX 12 18 0 -2
BITMAP
0000
0000
0000
0000
3060
48E0
49C0
3380
0700
0E00
1CC0
3920
7120
60C0
0000
0000
0000
0000
ENDCHAR
STARTCHAR uni0026
ENCODING 38
SWIDTH 666 0
DWIDTH 12 0
BBX 12 18 0 -2
BITMAP
0000
0000
0F00
1980
30C0
30C0
3180
1B00
0E00
0E00
1B10
3190
61A0
60E0
30C0
1FB0
0000
0000
ENDCHAR
STARTCHAR uni0027
ENCODING 39
SWIDTH 666 0
DWIDTH 12 0
BBX 12 18 0 -2
BITMAP
0000
0000
0600
0600
0200
0400
0000
0000
0000
0000
0000
0000
0000
0000
0000
0000
0000
0000
ENDCHAR
STARTCHAR uni0028
ENCODING 40
SWIDTH 666 0
DWIDTH 12 0
BBX 12 18 0 -2
BITMAP
0000
0000
0180
0380
0700
0600
0E00
0C00
0C00
0C00
0C00
0E00
0600
0700
0380
0180
0000
0000
ENDCHAR
STARTCHAR uni0029
ENCODING 41
SWIDTH 666 0
DWIDTH 12 0
BBX 12 18 0 -2
BITMAP
0000
0000
1800
1C00
0E00
0600
0700
0300
0300
0300
0300
0700
0600
0E00
1C00
1800
0000
0000
ENDCHAR
STARTCHAR uni00e1
ENCODING 225
SWIDTH 666 0
DWIDTH 12 0
BBX 12 18 0 -2
BITMAP
0000
0600
0E00
1C00
1800
0000
1F00
3F80
31C0
00C0
3FC0
7FC0
60C0
60C0
7FE0
3FE0
0000
0000
ENDCHAR
STARTCHAR uni002b
ENCODING 43
SWIDTH 666 0
DWIDTH 12 0
BBX 12 18 0 -2
BITMAP
0000
0000
0000
0000
0600
0600
0600
0600
7FE0
7FE0
0600
0600
0600
0600
0000
0000
0000
0000
ENDCHAR
STARTCHAR uni002c
ENCODING 44
SWIDTH 666 0
DWIDTH 12 0
BBX 12 18 0 -2
BITMAP
0000
0000
0000
0000
0000
0000
0000
0000
0000
0000
0000
0000
0600
0600
0200
0400
0000
0000
ENDCHAR
STARTCHAR uni002d
ENCODING 45
SWIDTH 666 0
DWIDTH 12 0
BBX 12 18 0 -2
BITMAP
0000
0000
0000
0000
0000
0000
0000
0000
3FC0
3FC0
0000
0000
0000
0000
0000
0000
0000
0000
ENDCHAR
STARTCHAR uni002e
ENCODING 46
SWIDTH 666 0
DWIDTH 12 0
BBX 12 18 0 -2
BITMAP
0000
0000
0000
0000
0000
0000
0000
0000
0000
0000
0000
0000
0000
0000
1800
1800
0000
0000
ENDCHAR
STARTCHAR uni002f
ENCODING 47
SWIDTH 666 0
DWIDTH 12 0
BBX 12 18 0 -2
BITMAP
0000
0000
0000
0000
0060
00E0
01C0
0380
0700
0E00
1C00
3800
7000
6000
0000
0000
0000
0000
ENDCHAR
STARTCHAR uni0030
ENCODING 48
SWIDTH 666 0
DWIDTH 12 0
BBX 12 18 0 -2
BITMAP
0000
0000
1F80
3FC0
71E0
61E0
61E0
6360
6360
6660
6660
6C60
6C60
78E0
3FC0
1F80
0000
0000
ENDCHAR
STARTCHAR uni0031
ENCODING 49
SWIDTH 666 0
DWIDTH 12 0
BBX 12 18 0 -2
BITMAP
0000
0000
0600
0E00
1E00
1E00
0600
0600
0600
0600
0600
0600
0600
0600
1F80
1F80
0000
0000
ENDCHAR
STARTCHAR uni0032
ENCODING 50
SWIDTH 666 0
DWIDTH 12 0
BBX 12 18 0 -2
BITMAP
0000
0000
1F80
3FC0
70E0
6060
0060
00E0
1FC0
3F80
7000
6000
6000
6000
7FE0
7FE0
0000
0000
ENDCHAR
STARTCHAR uni0033
ENCODING 51
SWIDTH 666 0
DWIDTH 12 0
BBX 12 18 0 -2
BITMAP
0000
0000
1F80
3FC0
70E0
6060
0060
00E0
07C0
07C0
00E0
0060
6060
70E0
3FC0
1F80
0000
0000
ENDCHAR
STARTCHAR uni0034
ENCODING 52
SWIDTH 666 0
DWIDTH 12 0
BBX 12 18 0 -2
BITMAP
0000
0000
0180
0380
0780
0F80
1D80
3980
7180
6180
6180
6180
7FE0
7FE0
0180
0180
0000
0000
ENDCHAR
STARTCHAR uni0035
ENCODING 53
SWIDTH 666 0
DWIDTH 12 0
BBX 12 18 0 -2
BITMAP
0000
0000
7FE0
7FE0
6000
6000
6000
7F80
7FC0
00E0
0060
0060
6060
70E0
3FC0
1F80
0000
0000
ENDCHAR
STARTCHAR uni0036
ENCODING 54
SWIDTH 666 0
DWIDTH 12 0
BBX 12 18 0 -2
BITMAP
0000
0000
1F80
3FC0
70E0
6060
6000
6000
7F80
7FC0
60E0
6060
6060
70E0
3FC0
1F80
0000
0000
ENDCHAR
STARTCHAR uni0037
ENCODING 55
SWIDTH 666 0
DWIDTH 12 0
BBX 12 18 0 -2
BITMAP
0000
0000
7FE0
7FE0
0060
0060
0060
00E0
01C0
0380
0700
0600
0600
0600
0600
0600
0000
0000
ENDCHAR
STARTCHAR uni0038
ENCODING 56
SWIDTH 666 0
DWIDTH 12 0
BBX 12 18 0 -2
BITMAP
0000
0000
1F80
3FC0
70E0
6060
6060
70E0
3FC0
3FC0
70E0
6060
6060
70E0
3FC0
1F80
0000
0000
ENDCHAR
STARTCHAR uni0039
ENCODING 57
SWIDTH 666 0
DWIDTH 12 0
BBX 12 18 0 -2
BITMAP
0000
0000
1F80
3FC0
70E0
6060
6060
70E0
3FE0
1FE0
0060
0060
6060
70E0
3FC0
1F80
0000
0000
ENDCHAR
STARTCHAR uni003a
ENCODING 58
SWIDTH 666 0
DWIDTH 12 0
BBX 12 18 0 -2
BITMAP
0000
0000
0000
0000
0600
0600
0000
0000
0000
0000
0000
0000
0600
0600
0000
0000
0000
0000
ENDCHAR
STARTCHAR uni003b
ENCODING 59
SWIDTH 666 0
DWIDTH 12 0
BBX 12 18 0 -2
BITMAP
0000
0000
0000
0000
0600
0600
0000
0000
0000
0000
0000
0000
0600
0600
0200
0400
0000
0000
ENDCHAR
STARTCHAR uni003c
ENCODING 60
SWIDTH 666 0
DWIDTH 12 0
BBX 12 18 0 -2
BITMAP
0000
0000
00C0
01C0
0380
0700
0E00
1C00
3800
3800
1C00
0E00
0700
0380
01C0
00C0
0000
0000
ENDCHAR
STARTCHAR uni003d
ENCODING 61
SWIDTH 666 0
DWIDTH 12 0
BBX 12 18 0 -2
BITMAP
0000
0000
0000
0000
0000
0000
7FE0
7FE0
0000
0000
7FE0
7FE0
0000
0000
0000
0000
0000
0000
ENDCHAR
STARTCHAR uni003e
ENCODING 62
SWIDTH 666 0
DWIDTH 12 0
BBX 12 18 0 -2
BITMAP
0000
0000
3000
3800
1C00
0E00
0700
0380
01C0
01C0
0380
0700
0E00
1C00
3800
3000
0000
0000
ENDCHAR
STARTCHAR uni003f
ENCODING 63
SWIDTH 666 0
DWIDTH 12 0
BBX 12 18 0 -2
BITMAP
0000
0000
1F80
3FC0
70E0
6060
0060
00E0
07C0
0780
0600
0600
0000
0000
0600
0600
0000
0000
ENDCHAR
STARTCHAR uni0040
ENCODING 64
SWIDTH 666 0
DWIDTH 12 0
BBX 12 18 0 -2
BITMAP
0000
0000
1F80
3FC0
70E0
6060
6360
67E0
6EE0
6C60
6E60
67E0
63E0
7000
3FC0
1FC0
0000
0000
ENDCHAR
STARTCHAR uni0041
ENCODING 65
SWIDTH 666 0
DWIDTH 12 0
BBX 12 18 0 -2
BITMAP
0000
0000
0600
0F00
1F80
39C0
70E0
6060
6060
6060
7FE0
7FE0
6060
6060
6060
6060
0000
0000
ENDCHAR
STARTCHAR uni0042
ENCODING 66
SWIDTH 666 0
DWIDTH 12 0
BBX 12 18 0 -2
BITMAP
0000
0000
7F80
7FC0
30E0
3060
3060
30E0
3FC0
3FC0
30E0
3060
3060
30E0
7FC0
7F80
0000
0000
ENDCHAR
STARTCHAR uni0043
ENCODING 67
SWIDTH 666 0
DWIDTH 12 0
BBX 12 18 0 -2
BITMAP
0000
0000
1F80
3FC0
70E0
6060
6000
6000
6000
6000
6000
6000
6060
70E0
3FC0
1F80
0000
0000
ENDCHAR
STARTCHAR uni0044
ENCODING 68
SWIDTH 666 0
DWIDTH 12 0
BBX 12 18 0 -2
BITMAP
0000
0000
7F80
7FC0
30E0
3060
3060
3060
3060
3060
3060
3060
3060
30E0
7FC0
7F80
0000
0000
ENDCHAR
STARTCHAR uni0045
ENCODING 69
SWIDTH 666 0
DWIDTH 12 0
BBX 12 18 0 -2
BITMAP
0000
0000
7FE0
7FE0
6000
6000
6000
6000
7F80
7F80
6000
6000
6000
6000
7FE0
7FE0
0000
0000
ENDCHAR
STARTCHAR uni0046
ENCODING 70
SWIDTH 666 0
DWIDTH 12 0
BBX 12 18 0 -2
BITMAP
0000
0000
7FE0
7FE0
6000
6000
6000
6000
7F80
7F80
6000
6000
6000
6000
6000
6000
0000
0000
ENDCHAR
STARTCHAR uni0047
ENCODING 71
SWIDTH 666 0
DWIDTH 12 0
BBX 12 18 0 -2
BITMAP
0000
0000
1F80
3FC0
70E0
6060
6000
6000
61E0
61E0
6060
60E0
61E0
73E0
3F60
1E60
0000
0000
ENDCHAR
STARTCHAR uni0048
ENCODING 72
SWIDTH 666 0
DWIDTH 12 0
BBX 12 18 0 -2
BITMAP
0000
0000
6060
6060
6060
6060
6060
6060
7FE0
7FE0
6060
6060
6060
6060
6060
6060
0000
0000
ENDCHAR
STARTCHAR uni0049
ENCODING 73
SWIDTH 666 0
DWIDTH 12 0
BBX 12 18 0 -2
BITMAP
0000
0000
1F80
1F80
0600
0600
0600
0600
0600
0600
0600
0600
0600
0600
1F80
1F80
0000
0000
ENDCHAR
STARTCHAR uni004a
ENCODING 74
SWIDTH 666 0
DWIDTH 12 0
BBX 12 18 0 -2
BITMAP
0000
0000
1FE0
1FE0
0180
0180
0180
0180
0180
0180
0180
0180
6180
7380
3F00
1E00
0000
0000
ENDCHAR
STARTCHAR uni004b
ENCODING 75
SWIDTH 666 0
DWIDTH 12 0
BBX 12 18 0 -2
BITMAP
0000
0000
6060
60E0
61C0
6380
6700
7E00
7C00
7C00
6E00
6700
6380
61C0
60E0
6060
0000
0000
ENDCHAR
STARTCHAR uni004c
ENCODING 76
SWIDTH 666 0
DWIDTH 12 0
BBX 12 18 0 -2
BITMAP
0000
0000
6000
6000
6000
6000
6000
6000
6000
6000
6000
6000
6000
6000
7FE0
7FE0
0000
0000
ENDCHAR
STARTCHAR uni004d
ENCODING 77
SWIDTH 666 0
DWIDTH 12 0
BBX 12 18 0 -2
BITMAP
0000
0000
6060
70E0
79E0
7FE0
6F60
6660
6060
6060
6060
6060
6060
6060
6060
6060
0000
0000
ENDCHAR
STARTCHAR uni004e
ENCODING 78
SWIDTH 666 0
DWIDTH 12 0
BBX 12 18 0 -2
BITMAP
0000
0000
6060
6060
6060
7060
7860
7C60
6E60
6760
63E0
61E0
60E0
6060
6060
6060
0000
0000
ENDCHAR
STARTCHAR uni004f
ENCODING 79
SWIDTH 666 0
DWIDTH 12 0
BBX 12 18 0 -2
BITMAP
0000
0000
1F80
3FC0
70E0
6060
6060
6060
6060
6060
6060
6060
6060
70E0
3FC0
1F80
0000
0000
ENDCHAR
STARTCHAR uni0050
ENCODING 80
SWIDTH 666 0
DWIDTH 12 0
BBX 12 18 0 -2
BITMAP
0000
0000
7F80
7FC0
60E0
6060
6060
60E0
7FC0
7F80
6000
6000
6000
6000
6000
6000
0000
0000
ENDCHAR
STARTCHAR uni0051
ENCODING 81
SWIDTH 666 0
DWIDTH 12 0
BBX 12 18 0 -2
BITMAP
0000
0000
1F80
3FC0
70E0
6060
6060
6060
6060
6060
6660
6F60
6F80
71C0
3EE0
1E60
0000
0000
ENDCHAR
STARTCHAR uni0052
ENCODING 82
SWIDTH 666 0
DWIDTH 12 0
BBX 12 18 0 -2
BITMAP
0000
0000
7F80
7FC0
60E0
6060
6060
60E0
7FC0
7F80
6600
6700
6380
61C0
60E0
6060
0000
0000
ENDCHAR
STARTCHAR uni0053
ENCODING 83
SWIDTH 666 0
DWIDTH 12 0
BBX 12 18 0 -2
BITMAP
0000
0000
1F80
3FC0
70E0
6060
6000
7000
3F80
1FC0
00E0
0060
6060
70E0
3FC0
1F80
0000
0000
ENDCHAR
STARTCHAR uni0054
ENCODING 84
SWIDTH 666 0
DWIDTH 12 0
BBX 12 18 0 -2
BITMAP
0000
0000
7FE0
7FE0
0600
0600
0600
0600
0600
0600
0600
0600
0600
0600
0600
0600
0000
0000
ENDCHAR
STARTCHAR uni0055
ENCODING 85
SWIDTH 666 0
DWIDTH 12 0
BBX 12 18 0 -2
BITMAP
0000
0000
6060
6060
6060
6060
6060
6060
6060
6060
6060
6060
6060
70E0
3FC0
1F80
0000
0000
ENDCHAR
STARTCHAR uni0056
ENCODING 86
SWIDTH 666 0
DWIDTH 12 0
BBX 12 18 0 -2
BITMAP
0000
0000
6060
6060
6060
6060
6060
6060
6060
6060
6060
70E0
39C0
1F80
0F00
0600
0000
0000
ENDCHAR
STARTCHAR uni0057
ENCODING 87
SWIDTH 666 0
DWIDTH 12 0
BBX 12 18 0 -2
BITMAP
0000
0000
6060
6060
6660
6660
6660
6660
6660
6660
6660
6660
6660
7FE0
3FC0
1980
0000
0000
ENDCHAR
STARTCHAR uni0058
ENCODING 88
SWIDTH 666 0
DWIDTH 12 0
BBX 12 18 0 -2
BITMAP
0000
0000
6060
6060
6060
70E0
39C0
1F80
0F00
0F00
1F80
39C0
70E0
6060
6060
6060
0000
0000
ENDCHAR
STARTCHAR uni0059
ENCODING 89
SWIDTH 666 0
DWIDTH 12 0
BBX 12 18 0 -2
BITMAP
0000
0000
6060
6060
6060
70E0
39C0
1F80
0F00
0600
0600
0600
0600
0600
0600
0600
0000
0000
ENDCHAR
STARTCHAR uni005a
ENCODING 90
SWIDTH 666 0
DWIDTH 12 0
BBX 12 18 0 -2
BITMAP
0000
0000
7FE0
7FE0
0060
00E0
01C0
0380
0700
0E00
1C00
3800
7000
6000
7FE0
7FE0
0000
0000
ENDCHAR
STARTCHAR uni005b
ENCODING 91
SWIDTH 666 0
DWIDTH 12 0
BBX 12 18 0 -2
BITMAP
0000
0000
0FC0
0FC0
0C00
0C00
0C00
0C00
0C00
0C00
0C00
0C00
0C00
0C00
0FC0
0FC0
0000
0000
ENDCHAR
STARTCHAR uni00e9
ENCODING 233
SWIDTH 666 0
DWIDTH 12 0
BBX 12 18 0 -2
BITMAP
0000
0600
0E00
1C00
1800
0000
1F80
3FC0
70E0
6060
7FE0
7FE0
6000
70E0
3FC0
1F80
0000
0000
ENDCHAR
STARTCHAR uni005d
ENCODING 93
SWIDTH 666 0
DWIDTH 12 0
BBX 12 18 0 -2
BITMAP
0000
0000
3F00
3F00
0300
0300
0300
0300
0300
0300
0300
0300
0300
0300
3F00
3F00
0000
0000
ENDCHAR
STARTCHAR uni00ed
ENCODING 237
SWIDTH 666 0
DWIDTH 12 0
BBX 12 18 0 -2
BITMAP
0000
0180
0380
0700
0600
0000
0600
0600
0600
0600
0600
0600
0600
0600
0600
0600
0000
0000
ENDCHAR
STARTCHAR uni00f3
ENCODING 243
SWIDTH 666 0
DWIDTH 12 0
BBX 12 18 0 -2
BITMAP
0000
0600
0E00
1C00
1800
0000
1F80
3FC0
70E0
6060
6060
6060
6060
70E0
3FC0
1F80
0000
0000
ENDCHAR
STARTCHAR uni00fa
ENCODING 250
SWIDTH 666 0
DWIDTH 12 0
BBX 12 18 0 -2
BITMAP
0000
0600
0E00
1C00
1800
0000
6060
6060
6060
6060
6060
6060
6060
70E0
3FE0
1F60
0000
0000
ENDCHAR
STARTCHAR uni0061
ENCODING 97
SWIDTH 666 0
DWIDTH 12 0
BBX 12 18 0 -2
BITMAP
0000
0000
0000
0000
0000
1F00
3F80
31C0
00C0
1FC0
3FC0
71C0
60C0
70C0
3FE0
1FE0
0000
0000
ENDCHAR
STARTCHAR uni0062
ENCODING 98
SWIDTH 666 0
DWIDTH 12 0
BBX 12 18 0 -2
BITMAP
0000
0000
0000
0000
6000
6000
6000
6000
6F80
7FC0
70E0
6060
6060
60E0
7FC0
7F80
0000
0000
ENDCHAR
STARTCHAR uni0063
ENCODING 99
SWIDTH 666 0
DWIDTH 12 0
BBX 12 18 0 -2
BITMAP
0000
0000
0000
0000
0000
0000
1F80
3FC0
70E0
6000
6000
6000
6000
70E0
3FC0
1F80
0000
0000
ENDCHAR
STARTCHAR uni0064
ENCODING 100
SWIDTH 666 0
DWIDTH 12 0
BBX 12 18 0 -2
BITMAP
0000
0000
0000
0000
00C0
00C0
00C0
1FC0
3FC0
70C0
60C0
60C0
60C0
70C0
3FE0
1FE0
0000
0000
ENDCHAR
STARTCHAR uni0065
ENCODING 101
SWIDTH 666 0
DWIDTH 12 0
BBX 12 18 0 -2
BITMAP
0000
0000
0000
0000
0000
0000
1F80
3FC0
70E0
6060
7FE0
7FE0
6000
70E0
3FC0
1F80
0000
0000
ENDCHAR
STARTCHAR uni0066
ENCODING 102
SWIDTH 666 0
DWIDTH 12 0
BBX 12 18 0 -2
BITMAP
0000
0000
0780
0FC0
0CC0
0C00
0C00
3F00
3F00
0C00
0C00
0C00
0C00
0C00
0C00
0C00
0000
0000
ENDCHAR
STARTCHAR uni0067
ENCODING 103
SWIDTH 666 0
DWIDTH 12 0
BBX 12 18 0 -2
BITMAP
0000
0000
0000
0000
0000
0000
1F60
3FE0
70E0
6060
70E0
3FE0
1F60
0060
70E0
3FC0
1F80
0000
ENDCHAR
STARTCHAR uni0068
ENCODING 104
SWIDTH 666 0
DWIDTH 12 0
BBX 12 18 0 -2
BITMAP
0000
0000
6000
6000
6000
6000
6780
6FC0
78E0
7060
6060
6060
6060
6060
6060
6060
0000
0000
ENDCHAR
STARTCHAR uni0069
ENCODING 105
SWIDTH 666 0
DWIDTH 12 0
BBX 12 18 0 -2
BITMAP
0000
0000
0600
0600
0000
0000
0600
0600
0600
0600
0600
0600
0600
0600
0600
0600
0000
0000
ENDCHAR
STARTCHAR uni006a
ENCODING 106
SWIDTH 666 0
DWIDTH 12 0
BBX 12 18 0 -2
BITMAP
0000
0000
0180
0180
0000
0000
0380
0180
0180
0180
0180
0180
0180
3180
3B80
1F00
0E00
0000
ENDCHAR
STARTCHAR uni006b
ENCODING 107
SWIDTH 666 0
DWIDTH 12 0
BBX 12 18 0 -2
BITMAP
0000
0000
6000
6000
6000
6000
6060
60E0
61C0
6380
6700
6F00
7F80
79C0
60E0
6060
0000
0000
ENDCHAR
STARTCHAR uni006c
ENCODING 108
SWIDTH 666 0
DWIDTH 12 0
BBX 12 18 0 -2
BITMAP
0000
0000
0E00
0600
0600
0600
0600
0600
0600
0600
0600
0600
0600
0680
0780
0300
0000
0000
ENDCHAR
STARTCHAR uni006d
ENCODING 109
SWIDTH 666 0
DWIDTH 12 0
BBX 12 18 0 -2
BITMAP
0000
0000
0000
0000
0000
0000
6DC0
7FE0
7760
6660
6660
6660
6660
6660
6660
6660
0000
0000
ENDCHAR
STARTCHAR uni006e
ENCODING 110
SWIDTH 666 0
DWIDTH 12 0
BBX 12 18 0 -2
BITMAP
0000
0000
0000
0000
0000
0000
6F80
7FC0
70E0
7060
6060
6060
6060
6060
6060
6060
0000
0000
ENDCHAR
STARTCHAR uni006f
ENCODING 111
SWIDTH 666 0
DWIDTH 12 0
BBX 12 18 0 -2
BITMAP
0000
0000
0000
0000
0000
0000
1F80
3FC0
70E0
6060
6060
6060
6060
70E0
3FC0
1F80
0000
0000
ENDCHAR
STARTCHAR uni0070
ENCODING 112
SWIDTH 666 0
DWIDTH 12 0
BBX 12 18 0 -2
BITMAP
0000
0000
0000
0000
0000
0000
6F80
7FC0
70E0
6060
6060
70E0
7FC0
6F80
6000
6000
6000
0000
ENDCHAR
STARTCHAR uni0071
ENCODING 113
SWIDTH 666 0
DWIDTH 12 0
BBX 12 18 0 -2
BITMAP
0000
0000
0000
0000
0000
0000
1F60
3FE0
70E0
6060
6060
70E0
3FE0
1F60
0060
0060
0060
0000
ENDCHAR
STARTCHAR uni0072
ENCODING 114
SWIDTH 666 0
DWIDTH 12 0
BBX 12 18 0 -2
BITMAP
0000
0000
0000
0000
0000
0000
6F80
7FC0
78E0
7060
6000
6000
6000
6000
6000
6000
0000
0000
ENDCHAR
STARTCHAR uni0073
ENCODING 115
SWIDTH 666 0
DWIDTH 12 0
BBX 12 18 0 -2
BITMAP
0000
0000
0000
0000
0000
0000
1F80
3FC0
70E0
7000
3F80
1FC0
00E0
70E0
3FC0
1F80
0000
0000
ENDCHAR
STARTCHAR uni0074
ENCODING 116
SWIDTH 666 0
DWIDTH 12 0
BBX 12 18 0 -2
BITMAP
0000
0000
0000
0000
0600
0600
1F80
1F80
0600
0600
0600
0600
0600
0600
0780
0380
0000
0000
ENDCHAR
STARTCHAR uni0075
ENCODING 117
SWIDTH 666 0
DWIDTH 12 0
BBX 12 18 0 -2
BITMAP
0000
0000
0000
0000
0000
0000
6060
6060
6060
6060
6060
6060
6060
70E0
3FE0
1F60
0000
0000
ENDCHAR
STARTCHAR uni0076
ENCODING 118
SWIDTH 666 0
DWIDTH 12 0
BBX 12 18 0 -2
BITMAP
0000
0000
0000
0000
0000
0000
6060
6060
6060
6060
6060
70E0
39C0
1F80
0F00
0600
0000
0000
ENDCHAR
STARTCHAR uni0077
ENCODING 119
SWIDTH 666 0
DWIDTH 12 0
BBX 12 18 0 -2
BITMAP
0000
0000
0000
0000
0000
0000
6060
6060
6660
6660
6660
6660
6F60
7FE0
39C0
1080
0000
0000
ENDCHAR
STARTCHAR uni0078
ENCODING 120
SWIDTH 666 0
DWIDTH 12 0
BBX 12 18 0 -2
BITMAP
0000
0000
0000
0000
0000
0000
6060
70E0
39C0
1F80
0F00
0F00
1F80
39C0
70E0
6060
0000
0000
ENDCHAR
STARTCHAR uni0079
ENCODING 121
SWIDTH 666 0
DWIDTH 12 0
BBX 12 18 0 -2
BITMAP
0000
0000
0000
0000
0000
0000
6060
6060
6060
6060
7060
3FE0
1FE0
0060
00E0
1FC0
1F80
0000
ENDCHAR
STARTCHAR uni007a
ENCODING 122
SWIDTH 666 0
DWIDTH 12 0
BBX 12 18 0 -2
BITMAP
0000
0000
0000
0000
0000
0000
7FE0
7FE0
01C0
0380
0700
0E00
1C00
3800
7FE0
7FE0
0000
0000
ENDCHAR
STARTCHAR uni00e7
ENCODING 231
SWIDTH 666 0
DWIDTH 12 0
BBX 12 18 0 -2
BITMAP
0000
0000
0000
1F80
3FC0
70E0
6000
6000
6000
6000
70E0
3FC0
1F80
0600
7E00
7C00
0000
0000
ENDCHAR
STARTCHAR uni00f7
ENCODING 247
SWIDTH 666 0
DWIDTH 12 0
BBX 12 18 0 -2
BITMAP
0000
0000
0000
0000
0F00
0F00
0000
0000
3FC0
3FC0
0000
0000
0F00
0F00
0000
0000
0000
0000
ENDCHAR
STARTCHAR uni00d1
ENCODING 209
SWIDTH 666 0
DWIDTH 12 0
BBX 12 18 0 -2
BITMAP
0000
1CC0
3FC0
7780
6300
0000
6060
7060
7860
7C60
6E60
6760
63E0
61E0
60E0
6060
0000
0000
ENDCHAR
STARTCHAR uni00f1
ENCODING 241
SWIDTH 666 0
DWIDTH 12 0
BBX 12 18 0 -2
BITMAP
0000
1CC0
3FC0
7780
6300
0000
6F80
7FC0
70E0
7060
6060
6060
6060
6060
6060
6060
0000
0000
ENDCHAR
STARTCHAR uni25a0
ENCODING 9632
SWIDTH 666 0
DWIDTH 12 0
BBX 12 18 0 -2
BITMAP
0000
0000
0000
7FE0
7FE0
7FE0
7FE0
7FE0
7FE0
7FE0
7FE0
7FE0
7FE0
7FE0
7FE0
7FE0
0000
0000
ENDCHAR
STARTCHAR unif002
ENCODING 61442
SWIDTH 666 0
DWIDTH 12 0
BBX 12 18 0 -2
BITMAP
0000
0000
0000
0000
0000
0000
0000
0000
79E0
79E0
0000
0000
0000
0000
0000
0000
0000
0000
ENDCHAR
STARTCHAR unif003
ENCODING 61443
SWIDTH 666 0
DWIDTH 12 0
BBX 12 18 0 -2
BITMAP
0000
0000
01E0
01E0
01E0
01E0
01E0
01E0
79E0
79E0
01E0
01E0
01E0
01E0
01E0
01E0
0000
0000
ENDCHAR
STARTCHAR unif004
ENCODING 61444
SWIDTH 666 0
DWIDTH 12 0
BBX 12 18 0 -2
BITMAP
0000
0000
7800
7800
7800
7800
7800
7800
79E0
79E0
7800
7800
7800
7800
7800
7800
0000
0000
ENDCHAR
STARTCHAR unif005
ENCODING 61445
SWIDTH 666 0
DWIDTH 12 0
BBX 12 18 0 -2
BITMAP
0000
0000
79E0
79E0
79E0
79E0
79E0
79E0
79E0
79E0
79E0
79E0
79E0
79E0
79E0
79E0
0000
0000
ENDCHAR
STARTCHAR uni250c
ENCODING 9484
SWIDTH 666 0
DWIDTH 12 0
BBX 12 18 0 -2
BITMAP
0000
0000
0000
0000
0000
0000
0000
0000
03F0
07F0
0700
0600
0600
0600
0600
0600
0600
0600
ENDCHAR
STARTCHAR uni252c
ENCODING 9516
SWIDTH 666 0
DWIDTH 12 0
BBX 12 18 0 -2
BITMAP
0000
0000
0000
0000
0000
0000
0000
0000
FFF0
FFF0
0F00
0600
0600
0600
0600
0600
0600
0600
ENDCHAR
STARTCHAR uni2510
ENCODING 9488
SWIDTH 666 0
DWIDTH 12 0
BBX 12 18 0 -2
BITMAP
0000
0000
0000
0000
0000
0000
0000
0000
FC00
FE00
0E00
0600
0600
0600
0600
0600
0600
0600
ENDCHAR
STARTCHAR uni251c
ENCODING 9500
SWIDTH 666 0
DWIDTH 12 0
BBX 12 18 0 -2
BITMAP
0600
0600
0600
0600
0600
0600
0600
0700
07F0
07F0
0700
0600
0600
0600
0600
0600
0600
0600
ENDCHAR
STARTCHAR uni253c
ENCODING 9532
SWIDTH 666 0
DWIDTH 12 0
BBX 12 18 0 -2
BITMAP
0600
0600
0600
0600
0600
0600
0600
0F00
FFF0
FFF0
0F00
0600
0600
0600
0600
0600
0600
0600
ENDCHAR
STARTCHAR uni2524
ENCODING 9508
SWIDTH 666 0
DWIDTH 12 0
BBX 12 18 0 -2
BITMAP
0600
0600
0600
0600
0600
0600
0600
0E00
FE00
FE00
0E00
0600
0600
0600
0600
0600
0600
0600
ENDCHAR
STARTCHAR uni2514
ENCODING 9492
SWIDTH 666 0
DWIDTH 12 0
BBX 12 18 0 -2
BITMAP
0600
0600
0600
0600
0600
0600
0600
0700
07F0
03F0
0000
0000
0000
0000
0000
0000
0000
0000
ENDCHAR
STARTCHAR uni2534
ENCODING 9524
SWIDTH 666 0
DWIDTH 12 0
BBX 12 18 0 -2
BITMAP
0600
0600
0600
0600
0600
0600
0600
0F00
FFF0
FFF0
0000
0000
0000
0000
0000
0000
0000
0000
ENDCHAR
STARTCHAR uni2518
ENCODING 9496
SWIDTH 666 0
DWIDTH 12 0
BBX 12 18 0 -2
BITMAP
0600
0600
0600
0600
0600
0600
0600
0E00
FE00
FC00
0000
0000
0000
0000
0000
0000
0000
0000
ENDCHAR
STARTCHAR uni2500
ENCODING 9472
SWIDTH 666 0
DWIDTH 12 0
BBX 12 18 0 -2
BITMAP
0000
0000
0000
0000
0000
0000
0000
0000
FFF0
FFF0
0000
0000
0000
0000
0000
0000
0000
0000
ENDCHAR
STARTCHAR uni2502
ENCODING 9474
SWIDTH 666 0
DWIDTH 12 0
BBX 12 18 0 -2
BITMAP
0600
0600
0600
0600
0600
0600
0600
0600
0600
0600
0600
0600
0600
0600
0600
0600
0600
0600
ENDCHAR
STARTCHAR uni0020
ENCODING 32
SWIDTH 666 0
DWIDTH 12 0
BBX 12 18 0 -2
BITMAP
0000
0000
0000
0000
0000
0000
0000
0000
0000
0000
0000
0000
0000
0000
0000
0000
0000
0000
ENDCHAR
STARTCHAR uni3057
ENCODING 12375
SWIDTH 666 0
DWIDTH 12 0
BBX 12 18 0 -2
BITMAP
0000
0000
2000
1000
1800
0800
1000
1000
1000
1000
1000
1040
1040
1080
0900
0600
0000
0000
ENDCHAR
STARTCHAR uni306e
ENCODING 12398
SWIDTH 666 0
DWIDTH 12 0
BBX 12 18 0 -2
BITMAP
0000
0000
0000
0000
0700
0AC0
1240
2220
2220
4420
4420
4420
4820
2840
10C0
0300
0000
0000
ENDCHAR
STARTCHAR uni308a
ENCODING 12426
SWIDTH 666 0
DWIDTH 12 0
BBX 12 18 0 -2
BITMAP
0000
0000
1000
0900
0A80
1440
1440
1840
1840
1840
0840
0880
0080
0100
0300
0C00
0000
0000
ENDCHAR
STARTCHAR uni308b
ENCODING 12427
SWIDTH 666 0
DWIDTH 12 0
BBX 12 18 0 -2
BITMAP
0000
0000
0000
1180
0F00
0100
0200
0400
0F80
0840
1020
2020
0620
0920
0940
0780
0000
0000
ENDCHAR
STARTCHAR uni3092
ENCODING 12434
SWIDTH 666 0
DWIDTH 12 0
BBX 12 18 0 -2
BITMAP
0000
0000
0800
0500
4600
3C00
0840
1620
19C0
2100
4700
0900
1100
1000
1040
0F80
0000
0000
ENDCHAR
STARTCHAR uni30a8
ENCODING 12456
SWIDTH 666 0
DWIDTH 12 0
BBX 12 18 0 -2
BITMAP
0000
0000
0000
0000
1FC0
0200
0200
0200
0200
0200
0200
0200
0200
0200
0200
3FE0
0000
0000
ENDCHAR
STARTCHAR uni30a4
ENCODING 12452
SWIDTH 666 0
DWIDTH 12 0
BBX 12 18 0 -2
BITMAP
0000
0000
0020
0020
0040
0040
0080
0100
0300
0D00
7100
0100
0100
0100
0100
0100
0000
0000
ENDCHAR
STARTCHAR uni30aa
ENCODING 12458
SWIDTH 666 0
DWIDTH 12 0
BBX 12 18 0 -2
BITMAP
0000
0000
0100
0100
0100
7FE0
0100
0100
0300
0300
0500
0900
1100
6100
0100
0300
0000
0000
ENDCHAR
STARTCHAR uni30ab
ENCODING 12459
SWIDTH 666 0
DWIDTH 12 0
BBX 12 18 0 -2
BITMAP
0000
0000
0400
0400
0400
7FE0
0420
0420
0420
0820
0820
0820
1020
1020
2020
61C0
0000
0000
ENDCHAR
STARTCHAR uni30ad
ENCODING 12461
SWIDTH 666 0
DWIDTH 12 0
BBX 12 18 0 -2
BITMAP
0000
0000
0800
0800
0400
3FC0
0400
0600
0200
0200
7FE0
0200
0100
0100
0100
0100
0000
0000
ENDCHAR
STARTCHAR uni30af
ENCODING 12463
SWIDTH 666 0
DWIDTH 12 0
BBX 12 18 0 -2
BITMAP
0000
0000
0400
0400
07E0
0820
0820
1020
2020
0040
0040
0080
0100
0100
0200
0C00
0000
0000
ENDCHAR
STARTCHAR uni30b3
ENCODING 12467
SWIDTH 666 0
DWIDTH 12 0
BBX 12 18 0 -2
BITMAP
0000
0000
0000
0000
0000
3FE0
0020
0020
0020
0020
0020
0020
0020
0020
0020
3FE0
0000
0000
ENDCHAR
STARTCHAR uni30b5
ENCODING 12469
SWIDTH 666 0
DWIDTH 12 0
BBX 12 18 0 -2
BITMAP
0000
0000
0000
0880
0880
0880
3FE0
0880
0880
0880
0880
0080
0080
0100
0200
0C00
0000
0000
ENDCHAR
STARTCHAR uni30b7
ENCODING 12471
SWIDTH 666 0
DWIDTH 12 0
BBX 12 18 0 -2
BITMAP
0000
0000
0000
3000
0C00
0020
0020
3820
0C20
0020
0040
0040
0080
0100
0600
3800
0000
0000
ENDCHAR
STARTCHAR uni30b9
ENCODING 12473
SWIDTH 666 0
DWIDTH 12 0
BBX 12 18 0 -2
BITMAP
0000
0000
0000
3FC0
0040
0040
0080
0080
0100
0100
0200
0300
0480
0840
1020
2020
0000
0000
ENDCHAR
STARTCHAR uni30bb
ENCODING 12475
SWIDTH 666 0
DWIDTH 12 0
BBX 12 18 0 -2
BITMAP
0000
0000
0800
0800
0800
3FE0
0820
0840
0840
0880
0800
0800
0800
0800
0800
0FE0
0000
0000
ENDCHAR
STARTCHAR uni30ba
ENCODING 12474
SWIDTH 666 0
DWIDTH 12 0
BBX 12 18 0 -2
BITMAP
0000
0000
0000
7FA0
0090
00C0
0120
0100
0200
0200
0400
0600
0900
1080
2040
4040
0000
0000
ENDCHAR
STARTCHAR uni30bf
ENCODING 12479
SWIDTH 666 0
DWIDTH 12 0
BBX 12 18 0 -2
BITMAP
0000
0000
0400
0400
07E0
0820
0820
1020
2640
0140
00C0
0080
0100
0100
0600
1800
0000
0000
ENDCHAR
STARTCHAR uni30c4
ENCODING 12484
SWIDTH 666 0
DWIDTH 12 0
BBX 12 18 0 -2
BITMAP
0000
0000
0000
0800
4420
2420
2220
1220
1020
0020
0040
0040
0080
0100
0200
0C00
0000
0000
ENDCHAR
STARTCHAR uni30c6
ENCODING 12486
SWIDTH 666 0
DWIDTH 12 0
BBX 12 18 0 -2
BITMAP
0000
0000
0000
3FC0
0000
0000
0000
7FE0
0200
0200
0200
0200
0400
0400
0800
3000
0000
0000
ENDCHAR
STARTCHAR uni30c8
ENCODING 12488
SWIDTH 666 0
DWIDTH 12 0
BBX 12 18 0 -2
BITMAP
0000
0000
0800
0800
0800
0800
0800
0E00
0900
0880
0840
0800
0800
0800
0800
0800
0000
0000
ENDCHAR
STARTCHAR uni30c7
ENCODING 12487
SWIDTH 666 0
DWIDTH 12 0
BBX 12 18 0 -2
BITMAP
0000
0000
0020
3FD0
0000
0020
0010
7FE0
0200
0200
0200
0200
0400
0400
0800
3000
0000
0000
ENDCHAR
STARTCHAR uni30c9
ENCODING 12489
SWIDTH 666 0
DWIDTH 12 0
BBX 12 18 0 -2
BITMAP
0000
0000
0840
0920
0880
0800
0800
0E00
0900
0880
0840
0800
0800
0800
0800
0800
0000
0000
ENDCHAR
STARTCHAR uni30cd
ENCODING 12493
SWIDTH 666 0
DWIDTH 12 0
BBX 12 18 0 -2
BITMAP
0000
0000
0C00
0300
0000
3FC0
0040
0080
0100
0200
0780
0A40
3220
0200
0200
0200
0000
0000
ENDCHAR
STARTCHAR uni30ce
ENCODING 12494
SWIDTH 666 0
DWIDTH 12 0
BBX 12 18 0 -2
BITMAP
0000
0000
0000
0040
0040
0040
0040
0080
0080
0080
0080
0100
0100
0200
0400
1800
0000
0000
ENDCHAR
STARTCHAR uni30d5
ENCODING 12501
SWIDTH 666 0
DWIDTH 12 0
BBX 12 18 0 -2
BITMAP
0000
0000
0000
0000
3FC0
0040
0040
0040
0040
0040
0040
0080
0080
0100
0200
0C00
0000
0000
ENDCHAR
STARTCHAR uni30d3
ENCODING 12499
SWIDTH 666 0
DWIDTH 12 0
BBX 12 18 0 -2
BITMAP
0000
0020
0090
2040
2000
2040
2180
2600
3800
2000
2000
2000
2000
2000
2000
1FE0
0000
0000
ENDCHAR
STARTCHAR uni30d6
ENCODING 12502
SWIDTH 666 0
DWIDTH 12 0
BBX 12 18 0 -2
BITMAP
0000
0020
0090
0040
7F80
0080
0080
0080
0080
0080
0080
0100
0100
0200
0400
1800
0000
0000
ENDCHAR
STARTCHAR uni30dc
ENCODING 12508
SWIDTH 666 0
DWIDTH 12 0
BBX 12 18 0 -2
BITMAP
0000
0020
0290
0240
0200
7FE0
0200
0200
1280
1240
1240
1240
2220
2220
4220
0200
0000
0000
ENDCHAR
STARTCHAR uni30d7
ENCODING 12503
SWIDTH 666 0
DWIDTH 12 0
BBX 12 18 0 -2
BITMAP
0000
0060
0090
0090
0060
7F80
0080
0080
0080
0080
0080
0100
0100
0200
0400
1800
0000
0000
ENDCHAR
STARTCHAR uni30dd
ENCODING 12509
SWIDTH 666 0
DWIDTH 12 0
BBX 12 18 0 -2
BITMAP
0000
0060
0290
0290
0260
7FE0
0200
0200
1280
1240
1240
1240
2220
2220
4220
0200
0000
0000
ENDCHAR
STARTCHAR uni30de
ENCODING 12510
SWIDTH 666 0
DWIDTH 12 0
BBX 12 18 0 -2
BITMAP
0000
0000
0000
7FE0
0020
0020
0020
0040
0040
1080
0900
0600
0200
0100
0080
0000
0000
0000
ENDCHAR
STARTCHAR uni30e0
ENCODING 12512
SWIDTH 666 0
DWIDTH 12 0
BBX 12 18 0 -2
BITMAP
0000
0000
0200
0200
0200
0400
0400
0400
0800
0800
0880
1040
1040
21A0
7E20
0020
0000
0000
ENDCHAR
STARTCHAR uni30e1
ENCODING 12513
SWIDTH 666 0
DWIDTH 12 0
BBX 12 18 0 -2
BITMAP
0000
0000
0000
0080
0080
0080
0080
1180
0900
0500
0200
0300
0480
0840
1000
2000
0000
0000
ENDCHAR
STARTCHAR uni30e2
ENCODING 12514
SWIDTH 666 0
DWIDTH 12 0
BBX 12 18 0 -2
BITMAP
0000
0000
0000
3FC0
0800
0800
0800
0800
7FE0
0800
0800
0800
0800
0800
07E0
0000
0000
0000
ENDCHAR
STARTCHAR uni30e9
ENCODING 12521
SWIDTH 666 0
DWIDTH 12 0
BBX 12 18 0 -2
BITMAP
0000
0000
0000
3FC0
0000
0000
0000
7FE0
0020
0020
0020
0040
0040
0080
0300
0C00
0000
0000
ENDCHAR
STARTCHAR uni30ea
ENCODING 12522
SWIDTH 666 0
DWIDTH 12 0
BBX 12 18 0 -2
BITMAP
0000
0000
0000
1040
1040
1040
1040
1040
1040
1040
0040
0080
0080
0100
0200
0C00
0000
0000
ENDCHAR
STARTCHAR uni30eb
ENCODING 12523
SWIDTH 666 0
DWIDTH 12 0
BBX 12 18 0 -2
BITMAP
0000
0000
0000
0100
0900
0900
0900
0910
0910
0910
0910
1120
1120
2140
4180
0000
0000
0000
ENDCHAR
STARTCHAR uni30ec
ENCODING 12524
SWIDTH 666 0
DWIDTH 12 0
BBX 12 18 0 -2
BITMAP
0000
0000
2000
2000
2000
2000
2000
2000
2040
2040
2040
2080
2080
2100
2600
3800
0000
0000
ENDCHAR
STARTCHAR uni30ed
ENCODING 12525
SWIDTH 666 0
DWIDTH 12 0
BBX 12 18 0 -2
BITMAP
0000
0000
0000
0000
3FE0
2020
2020
2020
2020
2020
2020
2020
2020
2020
3FE0
0000
0000
0000
ENDCHAR
STARTCHAR uni30f3
ENCODING 12531
SWIDTH 666 0
DWIDTH 12 0
BBX 12 18 0 -2
BITMAP
0000
0000
0000
3000
0800
0400
0020
0020
0020
0020
0020
0040
0080
0100
0600
1800
0000
0000
ENDCHAR
STARTCHAR uni30a3
ENCODING 12451
SWIDTH 666 0
DWIDTH 12 0
BBX 12 18 0 -2
BITMAP
0000
0000
0000
0000
0000
0000
0080
0080
0100
0200
0600
0A00
3200
0200
0200
0200
0000
0000
ENDCHAR
STARTCHAR uni30c3
ENCODING 12483
SWIDTH 666 0
DWIDTH 12 0
BBX 12 18 0 -2
BITMAP
0000
0000
0000
0000
0000
0000
0000
2400
1240
1240
0040
0080
0080
0100
0200
0400
0000
0000
ENDCHAR
STARTCHAR uni30e3
ENCODING 12515
SWIDTH 666 0
DWIDTH 12 0
BBX 12 18 0 -2
BITMAP
0000
0000
0000
0000
0000
0000
0800
0800
3FC0
0440
0480
0400
0200
0200
0100
0100
0000
0000
ENDCHAR
STARTCHAR uni30e5
ENCODING 12517
SWIDTH 666 0
DWIDTH 12 0
BBX 12 18 0 -2
BITMAP
0000
0000
0000
0000
0000
0000
0000
0000
1F00
0100
0100
0100
0100
0100
0100
3FC0
0000
0000
ENDCHAR
STARTCHAR uni30e7
ENCODING 12519
SWIDTH 666 0
DWIDTH 12 0
BBX 12 18 0 -2
BITMAP
0000
0000
0000
0000
0000
0000
0000
3F00
0100
0100
0100
3F00
0100
0100
0100
3F00
0000
0000
ENDCHAR
ENDFONT
